<svg width="16" height="17" viewBox="0 0 16 17" fill="none" xmlns="http://www.w3.org/2000/svg">
<path d="M11.3333 7.16665H12.6667C14 7.16665 14.6667 6.49998 14.6667 5.16665V3.83331C14.6667 2.49998 14 1.83331 12.6667 1.83331H11.3333C10 1.83331 9.33334 2.49998 9.33334 3.83331V5.16665C9.33334 6.49998 10 7.16665 11.3333 7.16665Z" stroke="#0062FF" stroke-width="1.5" stroke-miterlimit="10" stroke-linecap="round" stroke-linejoin="round"/>
<path d="M3.33334 15.1666H4.66668C6.00001 15.1666 6.66668 14.5 6.66668 13.1666V11.8333C6.66668 10.5 6.00001 9.83331 4.66668 9.83331H3.33334C2.00001 9.83331 1.33334 10.5 1.33334 11.8333V13.1666C1.33334 14.5 2.00001 15.1666 3.33334 15.1666Z" stroke="#0062FF" stroke-width="1.5" stroke-miterlimit="10" stroke-linecap="round" stroke-linejoin="round"/>
<path d="M4.00001 7.16665C5.47277 7.16665 6.66668 5.97274 6.66668 4.49998C6.66668 3.02722 5.47277 1.83331 4.00001 1.83331C2.52725 1.83331 1.33334 3.02722 1.33334 4.49998C1.33334 5.97274 2.52725 7.16665 4.00001 7.16665Z" stroke="#0062FF" stroke-width="1.5" stroke-miterlimit="10" stroke-linecap="round" stroke-linejoin="round"/>
<path d="M12 15.1666C13.4728 15.1666 14.6667 13.9727 14.6667 12.5C14.6667 11.0272 13.4728 9.83331 12 9.83331C10.5273 9.83331 9.33334 11.0272 9.33334 12.5C9.33334 13.9727 10.5273 15.1666 12 15.1666Z" stroke="#0062FF" stroke-width="1.5" stroke-miterlimit="10" stroke-linecap="round" stroke-linejoin="round"/>
</svg>
